<svg width="64" height="64" viewBox="0 0 64 64" fill="none" xmlns="http://www.w3.org/2000/svg">
<circle cx="32" cy="32" r="32" fill="#CAAD86"/>
<path d="M32 60.6061C46.9208 60.6061 59.1735 49.1824 60.4891 34.6042L37.9603 34.6067C35.6697 34.607 33.007 35.1456 32.367 37.345C32.1483 38.0969 32.1566 38.7472 32.161 39.0928C32.1783 40.4463 33.2059 41.5823 34.6175 41.9735L34.6462 44.2244C34.6554 44.9461 33.9859 45.54 33.1509 45.5507L27.1027 45.6279C26.2676 45.6386 25.5831 45.0619 25.5739 44.3402L25.5421 41.857C26.6184 41.3169 27.3373 40.305 27.3226 39.1546C27.3055 37.8166 26.3011 36.691 24.9144 36.2876C23.8321 19.0185 32.3207 14.0129 36.6037 13.9385C31.8015 17.3872 31.3983 22.3933 32.4383 25.7139C33.162 28.0247 35.6755 28.8251 38.0969 28.8249L60.4316 28.8223C58.8508 14.5191 46.7246 3.39394 32 3.39394C16.2013 3.39394 3.39394 16.2013 3.39394 32C3.39394 47.7987 16.2013 60.6061 32 60.6061Z" fill="black"/>
<path fill-rule="evenodd" clip-rule="evenodd" d="M64 32C64 49.6731 49.6731 64 32 64C14.3269 64 0 49.6731 0 32C0 14.3269 14.3269 0 32 0C49.6731 0 64 14.3269 64 32ZM32 63.0303C49.1376 63.0303 63.0303 49.1376 63.0303 32C63.0303 14.8624 49.1376 0.969697 32 0.969697C14.8624 0.969697 0.969697 14.8624 0.969697 32C0.969697 49.1376 14.8624 63.0303 32 63.0303Z" fill="black"/>
</svg>
