<svg width="650" height="650" viewBox="0 0 650 650" fill="none" xmlns="http://www.w3.org/2000/svg">
<path d="M650 325C650 504.493 504.493 650 325 650C145.507 650 0 504.493 0 325C0 145.507 145.507 0 325 0C504.493 0 650 145.507 650 325Z" fill="#CAAD86"/>
<path d="M325 615.53C476.54 615.53 600.981 499.509 614.343 351.449L385.534 351.475C362.27 351.477 335.227 356.947 328.728 379.285C326.506 386.921 326.59 393.526 326.635 397.037C326.81 410.782 337.247 422.32 351.584 426.293L351.876 449.154C351.969 456.483 345.17 462.516 336.688 462.624L275.261 463.408C266.78 463.517 259.829 457.66 259.735 450.331L259.412 425.11C270.344 419.625 277.644 409.347 277.495 397.664C277.322 384.074 267.121 372.643 253.037 368.546C242.044 193.156 328.257 142.318 371.756 141.563C322.984 176.589 318.889 227.432 329.451 261.157C336.802 284.626 362.329 292.755 386.922 292.752L613.758 292.727C597.704 147.459 474.547 34.4697 325 34.4697C164.545 34.4697 34.4697 164.545 34.4697 325C34.4697 485.455 164.545 615.53 325 615.53Z" fill="black"/>
<path fill-rule="evenodd" clip-rule="evenodd" d="M650 325C650 504.493 504.493 650 325 650C145.507 650 0 504.493 0 325C0 145.507 145.507 0 325 0C504.493 0 650 145.507 650 325ZM325 640.152C499.053 640.152 640.152 499.053 640.152 325C640.152 150.947 499.053 9.84848 325 9.84848C150.947 9.84848 9.84848 150.947 9.84848 325C9.84848 499.053 150.947 640.152 325 640.152Z" fill="black"/>
</svg>
